<svg width="94" height="66" viewBox="0 0 94 66" fill="none" xmlns="http://www.w3.org/2000/svg">
<g clip-path="url(#clip0_1204_245)">
<path d="M2.07867 61.8397L1.00146 62.8562V64.5881H-0.019043V57.51H1.00146V61.4632L5.21578 57.51H5.23468L5.91501 58.2442L2.7968 61.162L6.46306 65.3411L5.70713 66L2.05977 61.8397H2.07867Z" fill="#333333"/>
<path d="M13.3608 57.4912V65.9812H12.3403V57.4912H13.3608Z" fill="#333333"/>
<path d="M25.4368 66H24.4163L20.2397 60.5973V65.0588H19.2192V58.9218H20.2397L24.4163 64.3622V57.51H25.4368V66Z" fill="#333333"/>
<path d="M34.9805 58.3759C37.0782 58.3759 38.8169 60.089 38.8169 62.1974C38.8169 64.3058 37.0782 65.9812 34.9805 65.9812C32.8828 65.9812 31.1631 64.2869 31.1631 62.1974C31.1631 60.1078 32.8639 58.3759 34.9805 58.3759ZM34.9805 64.9646C36.5491 64.9646 37.7964 63.7222 37.7964 62.1974C37.7964 60.6726 36.5491 59.3925 34.9805 59.3925C33.412 59.3925 32.1836 60.6537 32.1836 62.1974C32.1836 63.741 33.4309 64.9646 34.9805 64.9646Z" fill="#333333"/>
<path d="M47.6802 57.5665C48.8708 57.6606 49.4567 58.47 49.7401 58.8654L48.9086 59.4678C48.5873 59.0348 48.2661 58.6395 47.6046 58.583C47.0188 58.5453 46.4896 58.6771 46.1684 58.9595C45.9416 59.1854 45.7904 59.4866 45.7904 59.8066C45.7526 60.2772 46.0172 60.6349 47.4723 61.0302C48.1905 61.2185 50.3071 61.8209 50.0803 63.8351C49.9291 65.2282 48.7385 66.0753 47.0755 65.9812C45.0912 65.8682 44.562 64.3058 44.562 64.3058L45.3935 63.7598C45.4313 63.7975 45.8282 64.8893 47.1511 64.9646C48.2661 65.0399 48.9842 64.5881 49.0787 63.7222C49.0976 63.6657 49.0976 63.6092 49.0976 63.5339C49.0976 62.8186 48.5306 62.348 47.2267 62.0091C46.3384 61.7832 44.7888 61.3503 44.7888 59.8819V59.769C44.8266 59.1477 45.0723 58.6206 45.5258 58.2065C46.0739 57.7359 46.8487 57.4912 47.6991 57.5853L47.6802 57.5665Z" fill="#333333"/>
<path d="M62.1375 66H61.1169V61.7456H56.9404V64.3622H55.9199V58.9218H56.9404V60.7479H61.1169V57.51H62.1375V66Z" fill="#333333"/>
<path d="M69.0161 57.4912V65.9812H67.9956V57.4912H69.0161Z" fill="#333333"/>
<path d="M80.5632 58.7712H78.2198V66H77.1993V58.7712H74.856V57.7547H80.5632V58.7712Z" fill="#333333"/>
<path d="M93.9997 65.6235L93.0737 66L90.3712 59.336H89.9555L89.0484 61.5762H90.976V62.4986H88.6704L87.2341 66L86.3081 65.6235L89.2751 58.3383H91.0327L93.9808 65.6235H93.9997Z" fill="#333333"/>
<path d="M23.6416 5.79806V36.6708H28.0449V5.79806H23.6416Z" fill="#333333"/>
<path d="M51.8379 39.9652L48.5496 42.8454L32.6562 24.6982L27.9883 29.1221V23.0605L46.3385 5.79806H46.4897L49.4378 8.99829L35.8311 21.7239L51.8379 39.9652Z" fill="#333333"/>
<path d="M55.7121 10.7114C60.8902 10.0713 64.1218 12.9892 65.7093 14.4575L62.7044 17.7519C60.9847 16.2082 59.1894 14.7587 56.2979 15.1352C53.7277 15.4552 51.6111 16.5282 50.4395 18.0342C49.6268 19.2578 49.2678 20.5944 49.5701 22.0251C49.8725 24.077 51.3277 25.3759 57.8665 25.8089C61.0792 25.9971 70.774 26.656 71.5677 35.5414C72.1158 41.6783 67.807 45.8386 60.5878 46.8928C52.4994 48.0975 48.115 42.356 48.115 42.356L51.3466 39.4005C51.5167 39.5699 54.6916 43.8055 59.9453 42.996C64.8021 42.243 67.4668 39.7581 67.1077 35.9367C67.1266 35.6355 67.1077 35.4284 67.0132 35.1084C66.3896 32.0588 63.5171 30.5339 57.6208 30.1951C53.6144 29.9692 46.5275 29.5174 45.2235 23.2299L45.1101 22.7028C44.6755 20.0485 45.2991 17.5071 46.9055 15.3611C48.8142 12.8574 51.9702 11.1443 55.7121 10.7114Z" fill="#333333"/>
<path d="M25.8527 0L26.6275 1.58129L28.3662 1.82601L27.1 3.04963L27.4023 4.78152L25.8527 3.95322L24.2841 4.78152L24.5865 3.04963L23.3203 1.82601L25.059 1.58129L25.8527 0Z" fill="#333333"/>
<path d="M67.5613 15.0599L68.3362 16.6412L70.0937 16.8859L68.8275 18.1095L69.1299 19.8414L67.5613 19.0131L66.0117 19.8414L66.2951 18.1095L65.0479 16.8859L66.7865 16.6412L67.5613 15.0599Z" fill="#333333"/>
</g>
<defs>
<clipPath id="clip0_1204_245">
<rect width="94" height="66" fill="white"/>
</clipPath>
</defs>
</svg>
