<?xml version="1.0" encoding="utf-8"?>
<!-- Generator: Adobe Illustrator 27.9.0, SVG Export Plug-In . SVG Version: 6.00 Build 0)  -->
<svg version="1.1" id="レイヤー_1" xmlns="http://www.w3.org/2000/svg" xmlns:xlink="http://www.w3.org/1999/xlink" x="0px"
	 y="0px" viewBox="0 0 94 66" style="enable-background:new 0 0 94 66;" xml:space="preserve">
<style type="text/css">
	.st0{clip-path:url(#SVGID_00000073002802106915907410000016315795394347534743_);}
	.st1{fill:#000333;}
	.st2{fill:#333333;}
	.st3{fill:#DBBA17;}
</style>
<g>
	<defs>
		<rect id="SVGID_1_" y="0" width="94" height="66"/>
	</defs>
	<clipPath id="SVGID_00000143611875255968329580000016755737535302175649_">
		<use xlink:href="#SVGID_1_"  style="overflow:visible;"/>
	</clipPath>
	<g style="clip-path:url(#SVGID_00000143611875255968329580000016755737535302175649_);">
		<path class="st1" d="M2.1,61.8l-1.1,1v1.7H0v-7.1h1v4l4.2-4h0l0.7,0.7l-3.1,2.9l3.7,4.2L5.7,66L2.1,61.8L2.1,61.8z"/>
		<path class="st1" d="M13.4,57.5V66h-1v-8.5H13.4z"/>
		<path class="st1" d="M25.4,66h-1l-4.2-5.4v4.5h-1v-6.1h1l4.2,5.4v-6.9h1V66z"/>
		<path class="st1" d="M35,58.4c2.1,0,3.8,1.7,3.8,3.8c0,2.1-1.7,3.8-3.8,3.8c-2.1,0-3.8-1.7-3.8-3.8C31.2,60.1,32.9,58.4,35,58.4z
			 M35,65c1.6,0,2.8-1.2,2.8-2.8s-1.2-2.8-2.8-2.8c-1.6,0-2.8,1.3-2.8,2.8C32.2,63.7,33.4,65,35,65z"/>
		<path class="st1" d="M47.7,57.6c1.2,0.1,1.8,0.9,2.1,1.3l-0.8,0.6c-0.3-0.4-0.6-0.8-1.3-0.9c-0.6,0-1.1,0.1-1.4,0.4
			c-0.2,0.2-0.4,0.5-0.4,0.8c0,0.5,0.2,0.8,1.7,1.2c0.7,0.2,2.8,0.8,2.6,2.8c-0.2,1.4-1.3,2.2-3,2.1c-2-0.1-2.5-1.7-2.5-1.7l0.8-0.5
			c0,0,0.4,1.1,1.8,1.2c1.1,0.1,1.8-0.4,1.9-1.2c0-0.1,0-0.1,0-0.2c0-0.7-0.6-1.2-1.9-1.5c-0.9-0.2-2.4-0.7-2.4-2.1v-0.1
			c0-0.6,0.3-1.1,0.7-1.6C46.1,57.7,46.8,57.5,47.7,57.6L47.7,57.6z"/>
		<path class="st1" d="M62.1,66h-1v-4.3h-4.2v2.6h-1v-5.4h1v1.8h4.2v-3.2h1V66z"/>
		<path class="st1" d="M69,57.5V66h-1v-8.5H69z"/>
		<path class="st1" d="M80.6,58.8h-2.3V66h-1v-7.2h-2.3v-1h5.7V58.8z"/>
		<path class="st1" d="M94,65.6L93.1,66l-2.7-6.7H90L89,61.6H91v0.9h-2.3L87.2,66l-0.9-0.4l3-7.3H91L94,65.6L94,65.6z"/>
		<path class="st2" d="M23.6,5.8v30.9H28V5.8H23.6z"/>
		<path class="st2" d="M51.8,40l-3.3,2.9L32.7,24.7L28,29.1v-6.1L46.3,5.8h0.2L49.4,9L35.8,21.7L51.8,40z"/>
		<path class="st2" d="M55.7,10.7c5.2-0.6,8.4,2.3,10,3.7l-3,3.3c-1.7-1.5-3.5-3-6.4-2.6c-2.6,0.3-4.7,1.4-5.9,2.9
			c-0.8,1.2-1.2,2.6-0.9,4c0.3,2.1,1.8,3.4,8.3,3.8c3.2,0.2,12.9,0.8,13.7,9.7c0.5,6.1-3.8,10.3-11,11.4c-8.1,1.2-12.5-4.5-12.5-4.5
			l3.2-3c0.2,0.2,3.3,4.4,8.6,3.6c4.9-0.8,7.5-3.2,7.2-7.1c0-0.3,0-0.5-0.1-0.8c-0.6-3-3.5-4.6-9.4-4.9c-4-0.2-11.1-0.7-12.4-7
			l-0.1-0.5c-0.4-2.7,0.2-5.2,1.8-7.3C48.8,12.9,52,11.1,55.7,10.7z"/>
		<path class="st3" d="M25.9,0l0.8,1.6l1.7,0.2L27.1,3l0.3,1.7L25.9,4l-1.6,0.8L24.6,3l-1.3-1.2l1.7-0.2L25.9,0z"/>
	</g>
</g>
</svg>
